G75*
%MOIN*%
%OFA0B0*%
%FSLAX25Y25*%
%IPPOS*%
%LPD*%
%AMOC8*
5,1,8,0,0,1.08239X$1,22.5*
%
%ADD10C,0.00600*%
%ADD11C,0.00800*%
%ADD12R,0.01800X0.03000*%
%ADD13C,0.02200*%
%ADD14C,0.01200*%
D10*
X0125768Y0375300D02*
X0123633Y0377435D01*
X0123633Y0381705D01*
X0127904Y0381705D02*
X0127904Y0377435D01*
X0125768Y0375300D01*
X0130079Y0375300D02*
X0132214Y0375300D01*
X0131146Y0375300D02*
X0131146Y0379570D01*
X0130079Y0379570D01*
X0131146Y0381705D02*
X0131146Y0382773D01*
X0134376Y0379570D02*
X0137579Y0379570D01*
X0138646Y0378503D01*
X0138646Y0375300D01*
X0134376Y0375300D02*
X0134376Y0379570D01*
X0186133Y0377435D02*
X0188268Y0375300D01*
X0190404Y0377435D01*
X0190404Y0381705D01*
X0192579Y0381705D02*
X0195782Y0381705D01*
X0196849Y0380638D01*
X0196849Y0379570D01*
X0195782Y0378503D01*
X0192579Y0378503D01*
X0192579Y0381705D02*
X0192579Y0375300D01*
X0195782Y0375300D01*
X0196849Y0376368D01*
X0196849Y0377435D01*
X0195782Y0378503D01*
X0199024Y0378503D02*
X0203295Y0378503D01*
X0203295Y0379570D02*
X0203295Y0375300D01*
X0203295Y0379570D02*
X0201159Y0381705D01*
X0199024Y0379570D01*
X0199024Y0375300D01*
X0205470Y0381705D02*
X0209740Y0381705D01*
X0207605Y0381705D02*
X0207605Y0375300D01*
X0211915Y0381705D02*
X0216186Y0381705D01*
X0214050Y0381705D02*
X0214050Y0375300D01*
X0186133Y0377435D02*
X0186133Y0381705D01*
D11*
X0169003Y0205000D02*
X0167782Y0204080D01*
X0169003Y0203189D02*
X0169003Y0205000D01*
X0169003Y0206811D01*
X0167782Y0205860D02*
X0168942Y0205100D01*
X0170024Y0219400D02*
X0166643Y0219400D01*
X0165143Y0223943D02*
X0165143Y0226057D01*
X0166643Y0230600D02*
X0170024Y0230600D01*
X0188117Y0306752D02*
X0201896Y0306752D01*
X0197959Y0309902D02*
X0188117Y0309902D01*
X0188117Y0306752D01*
X0197959Y0309902D02*
X0197959Y0314626D01*
X0197959Y0330374D02*
X0197959Y0335098D01*
X0188117Y0335098D01*
X0188117Y0338248D01*
X0201896Y0338248D01*
X0194948Y0343110D02*
X0219357Y0343110D01*
X0219357Y0370669D01*
X0222507Y0370669D01*
X0222507Y0343110D01*
X0219357Y0343110D01*
X0217644Y0330374D02*
X0217644Y0314626D01*
X0194948Y0343110D02*
X0194948Y0370669D01*
X0219357Y0370669D01*
X0185450Y0372189D02*
X0151217Y0372189D01*
X0151217Y0352323D01*
X0141719Y0344331D02*
X0117310Y0344331D01*
X0117310Y0371890D01*
X0141719Y0371890D01*
X0141719Y0344331D01*
X0151217Y0333819D02*
X0151217Y0328863D01*
X0158885Y0328863D01*
X0177782Y0328863D02*
X0185450Y0328863D01*
X0185450Y0372189D01*
X0117310Y0371890D02*
X0114160Y0371890D01*
X0114160Y0344331D01*
X0117310Y0344331D01*
D12*
X0148333Y0225000D03*
X0148333Y0215000D03*
D13*
X0148333Y0234880D02*
X0148333Y0235120D01*
X0183213Y0225000D02*
X0183453Y0225000D01*
D14*
X0135144Y0304252D02*
X0131207Y0304252D01*
X0135144Y0304252D02*
X0135144Y0308189D01*
X0119396Y0304252D02*
X0115459Y0304252D01*
X0135144Y0331811D02*
X0135144Y0335748D01*
X0135073Y0335720D02*
X0131207Y0335720D01*
X0131207Y0335748D01*
X0119396Y0335748D02*
X0115459Y0335748D01*
M02*
