G75*
%MOIN*%
%OFA0B0*%
%FSLAX25Y25*%
%IPPOS*%
%LPD*%
%AMOC8*
5,1,8,0,0,1.08239X$1,22.5*
%
%ADD10C,0.00000*%
D10*
X0118333Y0040000D02*
X0118333Y0383701D01*
X0218255Y0383701D01*
X0218255Y0040000D01*
X0118333Y0040000D01*
X0121833Y0085000D02*
X0121835Y0085161D01*
X0121841Y0085321D01*
X0121851Y0085482D01*
X0121865Y0085642D01*
X0121883Y0085802D01*
X0121904Y0085961D01*
X0121930Y0086120D01*
X0121960Y0086278D01*
X0121993Y0086435D01*
X0122031Y0086592D01*
X0122072Y0086747D01*
X0122117Y0086901D01*
X0122166Y0087054D01*
X0122219Y0087206D01*
X0122275Y0087357D01*
X0122336Y0087506D01*
X0122399Y0087654D01*
X0122467Y0087800D01*
X0122538Y0087944D01*
X0122612Y0088086D01*
X0122690Y0088227D01*
X0122772Y0088365D01*
X0122857Y0088502D01*
X0122945Y0088636D01*
X0123037Y0088768D01*
X0123132Y0088898D01*
X0123230Y0089026D01*
X0123331Y0089151D01*
X0123435Y0089273D01*
X0123542Y0089393D01*
X0123652Y0089510D01*
X0123765Y0089625D01*
X0123881Y0089736D01*
X0124000Y0089845D01*
X0124121Y0089950D01*
X0124245Y0090053D01*
X0124371Y0090153D01*
X0124499Y0090249D01*
X0124630Y0090342D01*
X0124764Y0090432D01*
X0124899Y0090519D01*
X0125037Y0090602D01*
X0125176Y0090682D01*
X0125318Y0090758D01*
X0125461Y0090831D01*
X0125606Y0090900D01*
X0125753Y0090966D01*
X0125901Y0091028D01*
X0126051Y0091086D01*
X0126202Y0091141D01*
X0126355Y0091192D01*
X0126509Y0091239D01*
X0126664Y0091282D01*
X0126820Y0091321D01*
X0126976Y0091357D01*
X0127134Y0091388D01*
X0127292Y0091416D01*
X0127451Y0091440D01*
X0127611Y0091460D01*
X0127771Y0091476D01*
X0127931Y0091488D01*
X0128092Y0091496D01*
X0128253Y0091500D01*
X0128413Y0091500D01*
X0128574Y0091496D01*
X0128735Y0091488D01*
X0128895Y0091476D01*
X0129055Y0091460D01*
X0129215Y0091440D01*
X0129374Y0091416D01*
X0129532Y0091388D01*
X0129690Y0091357D01*
X0129846Y0091321D01*
X0130002Y0091282D01*
X0130157Y0091239D01*
X0130311Y0091192D01*
X0130464Y0091141D01*
X0130615Y0091086D01*
X0130765Y0091028D01*
X0130913Y0090966D01*
X0131060Y0090900D01*
X0131205Y0090831D01*
X0131348Y0090758D01*
X0131490Y0090682D01*
X0131629Y0090602D01*
X0131767Y0090519D01*
X0131902Y0090432D01*
X0132036Y0090342D01*
X0132167Y0090249D01*
X0132295Y0090153D01*
X0132421Y0090053D01*
X0132545Y0089950D01*
X0132666Y0089845D01*
X0132785Y0089736D01*
X0132901Y0089625D01*
X0133014Y0089510D01*
X0133124Y0089393D01*
X0133231Y0089273D01*
X0133335Y0089151D01*
X0133436Y0089026D01*
X0133534Y0088898D01*
X0133629Y0088768D01*
X0133721Y0088636D01*
X0133809Y0088502D01*
X0133894Y0088365D01*
X0133976Y0088227D01*
X0134054Y0088086D01*
X0134128Y0087944D01*
X0134199Y0087800D01*
X0134267Y0087654D01*
X0134330Y0087506D01*
X0134391Y0087357D01*
X0134447Y0087206D01*
X0134500Y0087054D01*
X0134549Y0086901D01*
X0134594Y0086747D01*
X0134635Y0086592D01*
X0134673Y0086435D01*
X0134706Y0086278D01*
X0134736Y0086120D01*
X0134762Y0085961D01*
X0134783Y0085802D01*
X0134801Y0085642D01*
X0134815Y0085482D01*
X0134825Y0085321D01*
X0134831Y0085161D01*
X0134833Y0085000D01*
X0134831Y0084839D01*
X0134825Y0084679D01*
X0134815Y0084518D01*
X0134801Y0084358D01*
X0134783Y0084198D01*
X0134762Y0084039D01*
X0134736Y0083880D01*
X0134706Y0083722D01*
X0134673Y0083565D01*
X0134635Y0083408D01*
X0134594Y0083253D01*
X0134549Y0083099D01*
X0134500Y0082946D01*
X0134447Y0082794D01*
X0134391Y0082643D01*
X0134330Y0082494D01*
X0134267Y0082346D01*
X0134199Y0082200D01*
X0134128Y0082056D01*
X0134054Y0081914D01*
X0133976Y0081773D01*
X0133894Y0081635D01*
X0133809Y0081498D01*
X0133721Y0081364D01*
X0133629Y0081232D01*
X0133534Y0081102D01*
X0133436Y0080974D01*
X0133335Y0080849D01*
X0133231Y0080727D01*
X0133124Y0080607D01*
X0133014Y0080490D01*
X0132901Y0080375D01*
X0132785Y0080264D01*
X0132666Y0080155D01*
X0132545Y0080050D01*
X0132421Y0079947D01*
X0132295Y0079847D01*
X0132167Y0079751D01*
X0132036Y0079658D01*
X0131902Y0079568D01*
X0131767Y0079481D01*
X0131629Y0079398D01*
X0131490Y0079318D01*
X0131348Y0079242D01*
X0131205Y0079169D01*
X0131060Y0079100D01*
X0130913Y0079034D01*
X0130765Y0078972D01*
X0130615Y0078914D01*
X0130464Y0078859D01*
X0130311Y0078808D01*
X0130157Y0078761D01*
X0130002Y0078718D01*
X0129846Y0078679D01*
X0129690Y0078643D01*
X0129532Y0078612D01*
X0129374Y0078584D01*
X0129215Y0078560D01*
X0129055Y0078540D01*
X0128895Y0078524D01*
X0128735Y0078512D01*
X0128574Y0078504D01*
X0128413Y0078500D01*
X0128253Y0078500D01*
X0128092Y0078504D01*
X0127931Y0078512D01*
X0127771Y0078524D01*
X0127611Y0078540D01*
X0127451Y0078560D01*
X0127292Y0078584D01*
X0127134Y0078612D01*
X0126976Y0078643D01*
X0126820Y0078679D01*
X0126664Y0078718D01*
X0126509Y0078761D01*
X0126355Y0078808D01*
X0126202Y0078859D01*
X0126051Y0078914D01*
X0125901Y0078972D01*
X0125753Y0079034D01*
X0125606Y0079100D01*
X0125461Y0079169D01*
X0125318Y0079242D01*
X0125176Y0079318D01*
X0125037Y0079398D01*
X0124899Y0079481D01*
X0124764Y0079568D01*
X0124630Y0079658D01*
X0124499Y0079751D01*
X0124371Y0079847D01*
X0124245Y0079947D01*
X0124121Y0080050D01*
X0124000Y0080155D01*
X0123881Y0080264D01*
X0123765Y0080375D01*
X0123652Y0080490D01*
X0123542Y0080607D01*
X0123435Y0080727D01*
X0123331Y0080849D01*
X0123230Y0080974D01*
X0123132Y0081102D01*
X0123037Y0081232D01*
X0122945Y0081364D01*
X0122857Y0081498D01*
X0122772Y0081635D01*
X0122690Y0081773D01*
X0122612Y0081914D01*
X0122538Y0082056D01*
X0122467Y0082200D01*
X0122399Y0082346D01*
X0122336Y0082494D01*
X0122275Y0082643D01*
X0122219Y0082794D01*
X0122166Y0082946D01*
X0122117Y0083099D01*
X0122072Y0083253D01*
X0122031Y0083408D01*
X0121993Y0083565D01*
X0121960Y0083722D01*
X0121930Y0083880D01*
X0121904Y0084039D01*
X0121883Y0084198D01*
X0121865Y0084358D01*
X0121851Y0084518D01*
X0121841Y0084679D01*
X0121835Y0084839D01*
X0121833Y0085000D01*
X0201833Y0085000D02*
X0201835Y0085161D01*
X0201841Y0085321D01*
X0201851Y0085482D01*
X0201865Y0085642D01*
X0201883Y0085802D01*
X0201904Y0085961D01*
X0201930Y0086120D01*
X0201960Y0086278D01*
X0201993Y0086435D01*
X0202031Y0086592D01*
X0202072Y0086747D01*
X0202117Y0086901D01*
X0202166Y0087054D01*
X0202219Y0087206D01*
X0202275Y0087357D01*
X0202336Y0087506D01*
X0202399Y0087654D01*
X0202467Y0087800D01*
X0202538Y0087944D01*
X0202612Y0088086D01*
X0202690Y0088227D01*
X0202772Y0088365D01*
X0202857Y0088502D01*
X0202945Y0088636D01*
X0203037Y0088768D01*
X0203132Y0088898D01*
X0203230Y0089026D01*
X0203331Y0089151D01*
X0203435Y0089273D01*
X0203542Y0089393D01*
X0203652Y0089510D01*
X0203765Y0089625D01*
X0203881Y0089736D01*
X0204000Y0089845D01*
X0204121Y0089950D01*
X0204245Y0090053D01*
X0204371Y0090153D01*
X0204499Y0090249D01*
X0204630Y0090342D01*
X0204764Y0090432D01*
X0204899Y0090519D01*
X0205037Y0090602D01*
X0205176Y0090682D01*
X0205318Y0090758D01*
X0205461Y0090831D01*
X0205606Y0090900D01*
X0205753Y0090966D01*
X0205901Y0091028D01*
X0206051Y0091086D01*
X0206202Y0091141D01*
X0206355Y0091192D01*
X0206509Y0091239D01*
X0206664Y0091282D01*
X0206820Y0091321D01*
X0206976Y0091357D01*
X0207134Y0091388D01*
X0207292Y0091416D01*
X0207451Y0091440D01*
X0207611Y0091460D01*
X0207771Y0091476D01*
X0207931Y0091488D01*
X0208092Y0091496D01*
X0208253Y0091500D01*
X0208413Y0091500D01*
X0208574Y0091496D01*
X0208735Y0091488D01*
X0208895Y0091476D01*
X0209055Y0091460D01*
X0209215Y0091440D01*
X0209374Y0091416D01*
X0209532Y0091388D01*
X0209690Y0091357D01*
X0209846Y0091321D01*
X0210002Y0091282D01*
X0210157Y0091239D01*
X0210311Y0091192D01*
X0210464Y0091141D01*
X0210615Y0091086D01*
X0210765Y0091028D01*
X0210913Y0090966D01*
X0211060Y0090900D01*
X0211205Y0090831D01*
X0211348Y0090758D01*
X0211490Y0090682D01*
X0211629Y0090602D01*
X0211767Y0090519D01*
X0211902Y0090432D01*
X0212036Y0090342D01*
X0212167Y0090249D01*
X0212295Y0090153D01*
X0212421Y0090053D01*
X0212545Y0089950D01*
X0212666Y0089845D01*
X0212785Y0089736D01*
X0212901Y0089625D01*
X0213014Y0089510D01*
X0213124Y0089393D01*
X0213231Y0089273D01*
X0213335Y0089151D01*
X0213436Y0089026D01*
X0213534Y0088898D01*
X0213629Y0088768D01*
X0213721Y0088636D01*
X0213809Y0088502D01*
X0213894Y0088365D01*
X0213976Y0088227D01*
X0214054Y0088086D01*
X0214128Y0087944D01*
X0214199Y0087800D01*
X0214267Y0087654D01*
X0214330Y0087506D01*
X0214391Y0087357D01*
X0214447Y0087206D01*
X0214500Y0087054D01*
X0214549Y0086901D01*
X0214594Y0086747D01*
X0214635Y0086592D01*
X0214673Y0086435D01*
X0214706Y0086278D01*
X0214736Y0086120D01*
X0214762Y0085961D01*
X0214783Y0085802D01*
X0214801Y0085642D01*
X0214815Y0085482D01*
X0214825Y0085321D01*
X0214831Y0085161D01*
X0214833Y0085000D01*
X0214831Y0084839D01*
X0214825Y0084679D01*
X0214815Y0084518D01*
X0214801Y0084358D01*
X0214783Y0084198D01*
X0214762Y0084039D01*
X0214736Y0083880D01*
X0214706Y0083722D01*
X0214673Y0083565D01*
X0214635Y0083408D01*
X0214594Y0083253D01*
X0214549Y0083099D01*
X0214500Y0082946D01*
X0214447Y0082794D01*
X0214391Y0082643D01*
X0214330Y0082494D01*
X0214267Y0082346D01*
X0214199Y0082200D01*
X0214128Y0082056D01*
X0214054Y0081914D01*
X0213976Y0081773D01*
X0213894Y0081635D01*
X0213809Y0081498D01*
X0213721Y0081364D01*
X0213629Y0081232D01*
X0213534Y0081102D01*
X0213436Y0080974D01*
X0213335Y0080849D01*
X0213231Y0080727D01*
X0213124Y0080607D01*
X0213014Y0080490D01*
X0212901Y0080375D01*
X0212785Y0080264D01*
X0212666Y0080155D01*
X0212545Y0080050D01*
X0212421Y0079947D01*
X0212295Y0079847D01*
X0212167Y0079751D01*
X0212036Y0079658D01*
X0211902Y0079568D01*
X0211767Y0079481D01*
X0211629Y0079398D01*
X0211490Y0079318D01*
X0211348Y0079242D01*
X0211205Y0079169D01*
X0211060Y0079100D01*
X0210913Y0079034D01*
X0210765Y0078972D01*
X0210615Y0078914D01*
X0210464Y0078859D01*
X0210311Y0078808D01*
X0210157Y0078761D01*
X0210002Y0078718D01*
X0209846Y0078679D01*
X0209690Y0078643D01*
X0209532Y0078612D01*
X0209374Y0078584D01*
X0209215Y0078560D01*
X0209055Y0078540D01*
X0208895Y0078524D01*
X0208735Y0078512D01*
X0208574Y0078504D01*
X0208413Y0078500D01*
X0208253Y0078500D01*
X0208092Y0078504D01*
X0207931Y0078512D01*
X0207771Y0078524D01*
X0207611Y0078540D01*
X0207451Y0078560D01*
X0207292Y0078584D01*
X0207134Y0078612D01*
X0206976Y0078643D01*
X0206820Y0078679D01*
X0206664Y0078718D01*
X0206509Y0078761D01*
X0206355Y0078808D01*
X0206202Y0078859D01*
X0206051Y0078914D01*
X0205901Y0078972D01*
X0205753Y0079034D01*
X0205606Y0079100D01*
X0205461Y0079169D01*
X0205318Y0079242D01*
X0205176Y0079318D01*
X0205037Y0079398D01*
X0204899Y0079481D01*
X0204764Y0079568D01*
X0204630Y0079658D01*
X0204499Y0079751D01*
X0204371Y0079847D01*
X0204245Y0079947D01*
X0204121Y0080050D01*
X0204000Y0080155D01*
X0203881Y0080264D01*
X0203765Y0080375D01*
X0203652Y0080490D01*
X0203542Y0080607D01*
X0203435Y0080727D01*
X0203331Y0080849D01*
X0203230Y0080974D01*
X0203132Y0081102D01*
X0203037Y0081232D01*
X0202945Y0081364D01*
X0202857Y0081498D01*
X0202772Y0081635D01*
X0202690Y0081773D01*
X0202612Y0081914D01*
X0202538Y0082056D01*
X0202467Y0082200D01*
X0202399Y0082346D01*
X0202336Y0082494D01*
X0202275Y0082643D01*
X0202219Y0082794D01*
X0202166Y0082946D01*
X0202117Y0083099D01*
X0202072Y0083253D01*
X0202031Y0083408D01*
X0201993Y0083565D01*
X0201960Y0083722D01*
X0201930Y0083880D01*
X0201904Y0084039D01*
X0201883Y0084198D01*
X0201865Y0084358D01*
X0201851Y0084518D01*
X0201841Y0084679D01*
X0201835Y0084839D01*
X0201833Y0085000D01*
X0201833Y0280000D02*
X0201835Y0280161D01*
X0201841Y0280321D01*
X0201851Y0280482D01*
X0201865Y0280642D01*
X0201883Y0280802D01*
X0201904Y0280961D01*
X0201930Y0281120D01*
X0201960Y0281278D01*
X0201993Y0281435D01*
X0202031Y0281592D01*
X0202072Y0281747D01*
X0202117Y0281901D01*
X0202166Y0282054D01*
X0202219Y0282206D01*
X0202275Y0282357D01*
X0202336Y0282506D01*
X0202399Y0282654D01*
X0202467Y0282800D01*
X0202538Y0282944D01*
X0202612Y0283086D01*
X0202690Y0283227D01*
X0202772Y0283365D01*
X0202857Y0283502D01*
X0202945Y0283636D01*
X0203037Y0283768D01*
X0203132Y0283898D01*
X0203230Y0284026D01*
X0203331Y0284151D01*
X0203435Y0284273D01*
X0203542Y0284393D01*
X0203652Y0284510D01*
X0203765Y0284625D01*
X0203881Y0284736D01*
X0204000Y0284845D01*
X0204121Y0284950D01*
X0204245Y0285053D01*
X0204371Y0285153D01*
X0204499Y0285249D01*
X0204630Y0285342D01*
X0204764Y0285432D01*
X0204899Y0285519D01*
X0205037Y0285602D01*
X0205176Y0285682D01*
X0205318Y0285758D01*
X0205461Y0285831D01*
X0205606Y0285900D01*
X0205753Y0285966D01*
X0205901Y0286028D01*
X0206051Y0286086D01*
X0206202Y0286141D01*
X0206355Y0286192D01*
X0206509Y0286239D01*
X0206664Y0286282D01*
X0206820Y0286321D01*
X0206976Y0286357D01*
X0207134Y0286388D01*
X0207292Y0286416D01*
X0207451Y0286440D01*
X0207611Y0286460D01*
X0207771Y0286476D01*
X0207931Y0286488D01*
X0208092Y0286496D01*
X0208253Y0286500D01*
X0208413Y0286500D01*
X0208574Y0286496D01*
X0208735Y0286488D01*
X0208895Y0286476D01*
X0209055Y0286460D01*
X0209215Y0286440D01*
X0209374Y0286416D01*
X0209532Y0286388D01*
X0209690Y0286357D01*
X0209846Y0286321D01*
X0210002Y0286282D01*
X0210157Y0286239D01*
X0210311Y0286192D01*
X0210464Y0286141D01*
X0210615Y0286086D01*
X0210765Y0286028D01*
X0210913Y0285966D01*
X0211060Y0285900D01*
X0211205Y0285831D01*
X0211348Y0285758D01*
X0211490Y0285682D01*
X0211629Y0285602D01*
X0211767Y0285519D01*
X0211902Y0285432D01*
X0212036Y0285342D01*
X0212167Y0285249D01*
X0212295Y0285153D01*
X0212421Y0285053D01*
X0212545Y0284950D01*
X0212666Y0284845D01*
X0212785Y0284736D01*
X0212901Y0284625D01*
X0213014Y0284510D01*
X0213124Y0284393D01*
X0213231Y0284273D01*
X0213335Y0284151D01*
X0213436Y0284026D01*
X0213534Y0283898D01*
X0213629Y0283768D01*
X0213721Y0283636D01*
X0213809Y0283502D01*
X0213894Y0283365D01*
X0213976Y0283227D01*
X0214054Y0283086D01*
X0214128Y0282944D01*
X0214199Y0282800D01*
X0214267Y0282654D01*
X0214330Y0282506D01*
X0214391Y0282357D01*
X0214447Y0282206D01*
X0214500Y0282054D01*
X0214549Y0281901D01*
X0214594Y0281747D01*
X0214635Y0281592D01*
X0214673Y0281435D01*
X0214706Y0281278D01*
X0214736Y0281120D01*
X0214762Y0280961D01*
X0214783Y0280802D01*
X0214801Y0280642D01*
X0214815Y0280482D01*
X0214825Y0280321D01*
X0214831Y0280161D01*
X0214833Y0280000D01*
X0214831Y0279839D01*
X0214825Y0279679D01*
X0214815Y0279518D01*
X0214801Y0279358D01*
X0214783Y0279198D01*
X0214762Y0279039D01*
X0214736Y0278880D01*
X0214706Y0278722D01*
X0214673Y0278565D01*
X0214635Y0278408D01*
X0214594Y0278253D01*
X0214549Y0278099D01*
X0214500Y0277946D01*
X0214447Y0277794D01*
X0214391Y0277643D01*
X0214330Y0277494D01*
X0214267Y0277346D01*
X0214199Y0277200D01*
X0214128Y0277056D01*
X0214054Y0276914D01*
X0213976Y0276773D01*
X0213894Y0276635D01*
X0213809Y0276498D01*
X0213721Y0276364D01*
X0213629Y0276232D01*
X0213534Y0276102D01*
X0213436Y0275974D01*
X0213335Y0275849D01*
X0213231Y0275727D01*
X0213124Y0275607D01*
X0213014Y0275490D01*
X0212901Y0275375D01*
X0212785Y0275264D01*
X0212666Y0275155D01*
X0212545Y0275050D01*
X0212421Y0274947D01*
X0212295Y0274847D01*
X0212167Y0274751D01*
X0212036Y0274658D01*
X0211902Y0274568D01*
X0211767Y0274481D01*
X0211629Y0274398D01*
X0211490Y0274318D01*
X0211348Y0274242D01*
X0211205Y0274169D01*
X0211060Y0274100D01*
X0210913Y0274034D01*
X0210765Y0273972D01*
X0210615Y0273914D01*
X0210464Y0273859D01*
X0210311Y0273808D01*
X0210157Y0273761D01*
X0210002Y0273718D01*
X0209846Y0273679D01*
X0209690Y0273643D01*
X0209532Y0273612D01*
X0209374Y0273584D01*
X0209215Y0273560D01*
X0209055Y0273540D01*
X0208895Y0273524D01*
X0208735Y0273512D01*
X0208574Y0273504D01*
X0208413Y0273500D01*
X0208253Y0273500D01*
X0208092Y0273504D01*
X0207931Y0273512D01*
X0207771Y0273524D01*
X0207611Y0273540D01*
X0207451Y0273560D01*
X0207292Y0273584D01*
X0207134Y0273612D01*
X0206976Y0273643D01*
X0206820Y0273679D01*
X0206664Y0273718D01*
X0206509Y0273761D01*
X0206355Y0273808D01*
X0206202Y0273859D01*
X0206051Y0273914D01*
X0205901Y0273972D01*
X0205753Y0274034D01*
X0205606Y0274100D01*
X0205461Y0274169D01*
X0205318Y0274242D01*
X0205176Y0274318D01*
X0205037Y0274398D01*
X0204899Y0274481D01*
X0204764Y0274568D01*
X0204630Y0274658D01*
X0204499Y0274751D01*
X0204371Y0274847D01*
X0204245Y0274947D01*
X0204121Y0275050D01*
X0204000Y0275155D01*
X0203881Y0275264D01*
X0203765Y0275375D01*
X0203652Y0275490D01*
X0203542Y0275607D01*
X0203435Y0275727D01*
X0203331Y0275849D01*
X0203230Y0275974D01*
X0203132Y0276102D01*
X0203037Y0276232D01*
X0202945Y0276364D01*
X0202857Y0276498D01*
X0202772Y0276635D01*
X0202690Y0276773D01*
X0202612Y0276914D01*
X0202538Y0277056D01*
X0202467Y0277200D01*
X0202399Y0277346D01*
X0202336Y0277494D01*
X0202275Y0277643D01*
X0202219Y0277794D01*
X0202166Y0277946D01*
X0202117Y0278099D01*
X0202072Y0278253D01*
X0202031Y0278408D01*
X0201993Y0278565D01*
X0201960Y0278722D01*
X0201930Y0278880D01*
X0201904Y0279039D01*
X0201883Y0279198D01*
X0201865Y0279358D01*
X0201851Y0279518D01*
X0201841Y0279679D01*
X0201835Y0279839D01*
X0201833Y0280000D01*
X0130322Y0312520D02*
X0130324Y0312601D01*
X0130330Y0312683D01*
X0130340Y0312764D01*
X0130354Y0312844D01*
X0130371Y0312923D01*
X0130393Y0313002D01*
X0130418Y0313079D01*
X0130447Y0313156D01*
X0130480Y0313230D01*
X0130517Y0313303D01*
X0130556Y0313374D01*
X0130600Y0313443D01*
X0130646Y0313510D01*
X0130696Y0313574D01*
X0130749Y0313636D01*
X0130805Y0313696D01*
X0130863Y0313752D01*
X0130925Y0313806D01*
X0130989Y0313857D01*
X0131055Y0313904D01*
X0131123Y0313948D01*
X0131194Y0313989D01*
X0131266Y0314026D01*
X0131341Y0314060D01*
X0131416Y0314090D01*
X0131494Y0314116D01*
X0131572Y0314139D01*
X0131651Y0314157D01*
X0131731Y0314172D01*
X0131812Y0314183D01*
X0131893Y0314190D01*
X0131975Y0314193D01*
X0132056Y0314192D01*
X0132137Y0314187D01*
X0132218Y0314178D01*
X0132299Y0314165D01*
X0132379Y0314148D01*
X0132457Y0314128D01*
X0132535Y0314103D01*
X0132612Y0314075D01*
X0132687Y0314043D01*
X0132760Y0314008D01*
X0132831Y0313969D01*
X0132901Y0313926D01*
X0132968Y0313881D01*
X0133034Y0313832D01*
X0133096Y0313780D01*
X0133156Y0313724D01*
X0133213Y0313666D01*
X0133268Y0313606D01*
X0133319Y0313542D01*
X0133367Y0313477D01*
X0133412Y0313409D01*
X0133454Y0313339D01*
X0133492Y0313267D01*
X0133527Y0313193D01*
X0133558Y0313118D01*
X0133585Y0313041D01*
X0133608Y0312963D01*
X0133628Y0312884D01*
X0133644Y0312804D01*
X0133656Y0312723D01*
X0133664Y0312642D01*
X0133668Y0312561D01*
X0133668Y0312479D01*
X0133664Y0312398D01*
X0133656Y0312317D01*
X0133644Y0312236D01*
X0133628Y0312156D01*
X0133608Y0312077D01*
X0133585Y0311999D01*
X0133558Y0311922D01*
X0133527Y0311847D01*
X0133492Y0311773D01*
X0133454Y0311701D01*
X0133412Y0311631D01*
X0133367Y0311563D01*
X0133319Y0311498D01*
X0133268Y0311434D01*
X0133213Y0311374D01*
X0133156Y0311316D01*
X0133096Y0311260D01*
X0133034Y0311208D01*
X0132968Y0311159D01*
X0132901Y0311114D01*
X0132832Y0311071D01*
X0132760Y0311032D01*
X0132687Y0310997D01*
X0132612Y0310965D01*
X0132535Y0310937D01*
X0132457Y0310912D01*
X0132379Y0310892D01*
X0132299Y0310875D01*
X0132218Y0310862D01*
X0132137Y0310853D01*
X0132056Y0310848D01*
X0131975Y0310847D01*
X0131893Y0310850D01*
X0131812Y0310857D01*
X0131731Y0310868D01*
X0131651Y0310883D01*
X0131572Y0310901D01*
X0131494Y0310924D01*
X0131416Y0310950D01*
X0131341Y0310980D01*
X0131266Y0311014D01*
X0131194Y0311051D01*
X0131123Y0311092D01*
X0131055Y0311136D01*
X0130989Y0311183D01*
X0130925Y0311234D01*
X0130863Y0311288D01*
X0130805Y0311344D01*
X0130749Y0311404D01*
X0130696Y0311466D01*
X0130646Y0311530D01*
X0130600Y0311597D01*
X0130556Y0311666D01*
X0130517Y0311737D01*
X0130480Y0311810D01*
X0130447Y0311884D01*
X0130418Y0311961D01*
X0130393Y0312038D01*
X0130371Y0312117D01*
X0130354Y0312196D01*
X0130340Y0312276D01*
X0130330Y0312357D01*
X0130324Y0312439D01*
X0130322Y0312520D01*
X0130322Y0327480D02*
X0130324Y0327561D01*
X0130330Y0327643D01*
X0130340Y0327724D01*
X0130354Y0327804D01*
X0130371Y0327883D01*
X0130393Y0327962D01*
X0130418Y0328039D01*
X0130447Y0328116D01*
X0130480Y0328190D01*
X0130517Y0328263D01*
X0130556Y0328334D01*
X0130600Y0328403D01*
X0130646Y0328470D01*
X0130696Y0328534D01*
X0130749Y0328596D01*
X0130805Y0328656D01*
X0130863Y0328712D01*
X0130925Y0328766D01*
X0130989Y0328817D01*
X0131055Y0328864D01*
X0131123Y0328908D01*
X0131194Y0328949D01*
X0131266Y0328986D01*
X0131341Y0329020D01*
X0131416Y0329050D01*
X0131494Y0329076D01*
X0131572Y0329099D01*
X0131651Y0329117D01*
X0131731Y0329132D01*
X0131812Y0329143D01*
X0131893Y0329150D01*
X0131975Y0329153D01*
X0132056Y0329152D01*
X0132137Y0329147D01*
X0132218Y0329138D01*
X0132299Y0329125D01*
X0132379Y0329108D01*
X0132457Y0329088D01*
X0132535Y0329063D01*
X0132612Y0329035D01*
X0132687Y0329003D01*
X0132760Y0328968D01*
X0132831Y0328929D01*
X0132901Y0328886D01*
X0132968Y0328841D01*
X0133034Y0328792D01*
X0133096Y0328740D01*
X0133156Y0328684D01*
X0133213Y0328626D01*
X0133268Y0328566D01*
X0133319Y0328502D01*
X0133367Y0328437D01*
X0133412Y0328369D01*
X0133454Y0328299D01*
X0133492Y0328227D01*
X0133527Y0328153D01*
X0133558Y0328078D01*
X0133585Y0328001D01*
X0133608Y0327923D01*
X0133628Y0327844D01*
X0133644Y0327764D01*
X0133656Y0327683D01*
X0133664Y0327602D01*
X0133668Y0327521D01*
X0133668Y0327439D01*
X0133664Y0327358D01*
X0133656Y0327277D01*
X0133644Y0327196D01*
X0133628Y0327116D01*
X0133608Y0327037D01*
X0133585Y0326959D01*
X0133558Y0326882D01*
X0133527Y0326807D01*
X0133492Y0326733D01*
X0133454Y0326661D01*
X0133412Y0326591D01*
X0133367Y0326523D01*
X0133319Y0326458D01*
X0133268Y0326394D01*
X0133213Y0326334D01*
X0133156Y0326276D01*
X0133096Y0326220D01*
X0133034Y0326168D01*
X0132968Y0326119D01*
X0132901Y0326074D01*
X0132832Y0326031D01*
X0132760Y0325992D01*
X0132687Y0325957D01*
X0132612Y0325925D01*
X0132535Y0325897D01*
X0132457Y0325872D01*
X0132379Y0325852D01*
X0132299Y0325835D01*
X0132218Y0325822D01*
X0132137Y0325813D01*
X0132056Y0325808D01*
X0131975Y0325807D01*
X0131893Y0325810D01*
X0131812Y0325817D01*
X0131731Y0325828D01*
X0131651Y0325843D01*
X0131572Y0325861D01*
X0131494Y0325884D01*
X0131416Y0325910D01*
X0131341Y0325940D01*
X0131266Y0325974D01*
X0131194Y0326011D01*
X0131123Y0326052D01*
X0131055Y0326096D01*
X0130989Y0326143D01*
X0130925Y0326194D01*
X0130863Y0326248D01*
X0130805Y0326304D01*
X0130749Y0326364D01*
X0130696Y0326426D01*
X0130646Y0326490D01*
X0130600Y0326557D01*
X0130556Y0326626D01*
X0130517Y0326697D01*
X0130480Y0326770D01*
X0130447Y0326844D01*
X0130418Y0326921D01*
X0130393Y0326998D01*
X0130371Y0327077D01*
X0130354Y0327156D01*
X0130340Y0327236D01*
X0130330Y0327317D01*
X0130324Y0327399D01*
X0130322Y0327480D01*
X0121833Y0280000D02*
X0121835Y0280161D01*
X0121841Y0280321D01*
X0121851Y0280482D01*
X0121865Y0280642D01*
X0121883Y0280802D01*
X0121904Y0280961D01*
X0121930Y0281120D01*
X0121960Y0281278D01*
X0121993Y0281435D01*
X0122031Y0281592D01*
X0122072Y0281747D01*
X0122117Y0281901D01*
X0122166Y0282054D01*
X0122219Y0282206D01*
X0122275Y0282357D01*
X0122336Y0282506D01*
X0122399Y0282654D01*
X0122467Y0282800D01*
X0122538Y0282944D01*
X0122612Y0283086D01*
X0122690Y0283227D01*
X0122772Y0283365D01*
X0122857Y0283502D01*
X0122945Y0283636D01*
X0123037Y0283768D01*
X0123132Y0283898D01*
X0123230Y0284026D01*
X0123331Y0284151D01*
X0123435Y0284273D01*
X0123542Y0284393D01*
X0123652Y0284510D01*
X0123765Y0284625D01*
X0123881Y0284736D01*
X0124000Y0284845D01*
X0124121Y0284950D01*
X0124245Y0285053D01*
X0124371Y0285153D01*
X0124499Y0285249D01*
X0124630Y0285342D01*
X0124764Y0285432D01*
X0124899Y0285519D01*
X0125037Y0285602D01*
X0125176Y0285682D01*
X0125318Y0285758D01*
X0125461Y0285831D01*
X0125606Y0285900D01*
X0125753Y0285966D01*
X0125901Y0286028D01*
X0126051Y0286086D01*
X0126202Y0286141D01*
X0126355Y0286192D01*
X0126509Y0286239D01*
X0126664Y0286282D01*
X0126820Y0286321D01*
X0126976Y0286357D01*
X0127134Y0286388D01*
X0127292Y0286416D01*
X0127451Y0286440D01*
X0127611Y0286460D01*
X0127771Y0286476D01*
X0127931Y0286488D01*
X0128092Y0286496D01*
X0128253Y0286500D01*
X0128413Y0286500D01*
X0128574Y0286496D01*
X0128735Y0286488D01*
X0128895Y0286476D01*
X0129055Y0286460D01*
X0129215Y0286440D01*
X0129374Y0286416D01*
X0129532Y0286388D01*
X0129690Y0286357D01*
X0129846Y0286321D01*
X0130002Y0286282D01*
X0130157Y0286239D01*
X0130311Y0286192D01*
X0130464Y0286141D01*
X0130615Y0286086D01*
X0130765Y0286028D01*
X0130913Y0285966D01*
X0131060Y0285900D01*
X0131205Y0285831D01*
X0131348Y0285758D01*
X0131490Y0285682D01*
X0131629Y0285602D01*
X0131767Y0285519D01*
X0131902Y0285432D01*
X0132036Y0285342D01*
X0132167Y0285249D01*
X0132295Y0285153D01*
X0132421Y0285053D01*
X0132545Y0284950D01*
X0132666Y0284845D01*
X0132785Y0284736D01*
X0132901Y0284625D01*
X0133014Y0284510D01*
X0133124Y0284393D01*
X0133231Y0284273D01*
X0133335Y0284151D01*
X0133436Y0284026D01*
X0133534Y0283898D01*
X0133629Y0283768D01*
X0133721Y0283636D01*
X0133809Y0283502D01*
X0133894Y0283365D01*
X0133976Y0283227D01*
X0134054Y0283086D01*
X0134128Y0282944D01*
X0134199Y0282800D01*
X0134267Y0282654D01*
X0134330Y0282506D01*
X0134391Y0282357D01*
X0134447Y0282206D01*
X0134500Y0282054D01*
X0134549Y0281901D01*
X0134594Y0281747D01*
X0134635Y0281592D01*
X0134673Y0281435D01*
X0134706Y0281278D01*
X0134736Y0281120D01*
X0134762Y0280961D01*
X0134783Y0280802D01*
X0134801Y0280642D01*
X0134815Y0280482D01*
X0134825Y0280321D01*
X0134831Y0280161D01*
X0134833Y0280000D01*
X0134831Y0279839D01*
X0134825Y0279679D01*
X0134815Y0279518D01*
X0134801Y0279358D01*
X0134783Y0279198D01*
X0134762Y0279039D01*
X0134736Y0278880D01*
X0134706Y0278722D01*
X0134673Y0278565D01*
X0134635Y0278408D01*
X0134594Y0278253D01*
X0134549Y0278099D01*
X0134500Y0277946D01*
X0134447Y0277794D01*
X0134391Y0277643D01*
X0134330Y0277494D01*
X0134267Y0277346D01*
X0134199Y0277200D01*
X0134128Y0277056D01*
X0134054Y0276914D01*
X0133976Y0276773D01*
X0133894Y0276635D01*
X0133809Y0276498D01*
X0133721Y0276364D01*
X0133629Y0276232D01*
X0133534Y0276102D01*
X0133436Y0275974D01*
X0133335Y0275849D01*
X0133231Y0275727D01*
X0133124Y0275607D01*
X0133014Y0275490D01*
X0132901Y0275375D01*
X0132785Y0275264D01*
X0132666Y0275155D01*
X0132545Y0275050D01*
X0132421Y0274947D01*
X0132295Y0274847D01*
X0132167Y0274751D01*
X0132036Y0274658D01*
X0131902Y0274568D01*
X0131767Y0274481D01*
X0131629Y0274398D01*
X0131490Y0274318D01*
X0131348Y0274242D01*
X0131205Y0274169D01*
X0131060Y0274100D01*
X0130913Y0274034D01*
X0130765Y0273972D01*
X0130615Y0273914D01*
X0130464Y0273859D01*
X0130311Y0273808D01*
X0130157Y0273761D01*
X0130002Y0273718D01*
X0129846Y0273679D01*
X0129690Y0273643D01*
X0129532Y0273612D01*
X0129374Y0273584D01*
X0129215Y0273560D01*
X0129055Y0273540D01*
X0128895Y0273524D01*
X0128735Y0273512D01*
X0128574Y0273504D01*
X0128413Y0273500D01*
X0128253Y0273500D01*
X0128092Y0273504D01*
X0127931Y0273512D01*
X0127771Y0273524D01*
X0127611Y0273540D01*
X0127451Y0273560D01*
X0127292Y0273584D01*
X0127134Y0273612D01*
X0126976Y0273643D01*
X0126820Y0273679D01*
X0126664Y0273718D01*
X0126509Y0273761D01*
X0126355Y0273808D01*
X0126202Y0273859D01*
X0126051Y0273914D01*
X0125901Y0273972D01*
X0125753Y0274034D01*
X0125606Y0274100D01*
X0125461Y0274169D01*
X0125318Y0274242D01*
X0125176Y0274318D01*
X0125037Y0274398D01*
X0124899Y0274481D01*
X0124764Y0274568D01*
X0124630Y0274658D01*
X0124499Y0274751D01*
X0124371Y0274847D01*
X0124245Y0274947D01*
X0124121Y0275050D01*
X0124000Y0275155D01*
X0123881Y0275264D01*
X0123765Y0275375D01*
X0123652Y0275490D01*
X0123542Y0275607D01*
X0123435Y0275727D01*
X0123331Y0275849D01*
X0123230Y0275974D01*
X0123132Y0276102D01*
X0123037Y0276232D01*
X0122945Y0276364D01*
X0122857Y0276498D01*
X0122772Y0276635D01*
X0122690Y0276773D01*
X0122612Y0276914D01*
X0122538Y0277056D01*
X0122467Y0277200D01*
X0122399Y0277346D01*
X0122336Y0277494D01*
X0122275Y0277643D01*
X0122219Y0277794D01*
X0122166Y0277946D01*
X0122117Y0278099D01*
X0122072Y0278253D01*
X0122031Y0278408D01*
X0121993Y0278565D01*
X0121960Y0278722D01*
X0121930Y0278880D01*
X0121904Y0279039D01*
X0121883Y0279198D01*
X0121865Y0279358D01*
X0121851Y0279518D01*
X0121841Y0279679D01*
X0121835Y0279839D01*
X0121833Y0280000D01*
M02*
