G75*
%MOIN*%
%OFA0B0*%
%FSLAX25Y25*%
%IPPOS*%
%LPD*%
%AMOC8*
5,1,8,0,0,1.08239X$1,22.5*
%
%ADD10R,0.04724X0.02165*%
%ADD11R,0.04331X0.03937*%
%ADD12R,0.03937X0.04331*%
%ADD13R,0.18110X0.03937*%
%ADD14R,0.13386X0.06299*%
%ADD15C,0.01181*%
%ADD16R,0.05512X0.01575*%
%ADD17R,0.05906X0.07087*%
%ADD18R,0.02756X0.05906*%
D10*
X0163215Y0221260D03*
X0163215Y0228740D03*
X0173452Y0228740D03*
X0173452Y0225000D03*
X0173452Y0221260D03*
D11*
X0151680Y0225000D03*
X0144987Y0225000D03*
X0144987Y0215000D03*
X0151680Y0215000D03*
X0151680Y0235000D03*
X0144987Y0235000D03*
D12*
X0183333Y0228346D03*
X0183333Y0221654D03*
D13*
X0191266Y0318563D03*
X0191266Y0326437D03*
D14*
X0211739Y0335886D03*
X0211739Y0309114D03*
D15*
X0163503Y0206378D02*
X0163503Y0203622D01*
X0163503Y0206378D02*
X0166259Y0206378D01*
X0166259Y0203622D01*
X0163503Y0203622D01*
X0163503Y0204802D02*
X0166259Y0204802D01*
X0166259Y0205982D02*
X0163503Y0205982D01*
X0170408Y0206378D02*
X0170408Y0203622D01*
X0170408Y0206378D02*
X0173164Y0206378D01*
X0173164Y0203622D01*
X0170408Y0203622D01*
X0170408Y0204802D02*
X0173164Y0204802D01*
X0173164Y0205982D02*
X0170408Y0205982D01*
D16*
X0133963Y0314882D03*
X0133963Y0317441D03*
X0133963Y0320000D03*
X0133963Y0322559D03*
X0133963Y0325118D03*
D17*
X0123333Y0334504D03*
X0123333Y0305496D03*
D18*
X0123333Y0320000D03*
M02*
