G75*
%MOIN*%
%OFA0B0*%
%FSLAX25Y25*%
%IPPOS*%
%LPD*%
%AMOC8*
5,1,8,0,0,1.08239X$1,22.5*
%
%ADD10C,0.00600*%
%ADD11C,0.01200*%
%ADD12C,0.00800*%
D10*
X0164498Y0102822D02*
X0164498Y0103890D01*
X0165566Y0104957D01*
X0170904Y0104957D01*
X0170904Y0101754D01*
X0169836Y0100687D01*
X0167701Y0100687D01*
X0166633Y0101754D01*
X0166633Y0104957D01*
X0166633Y0107132D02*
X0166633Y0109267D01*
X0166633Y0108200D02*
X0173039Y0108200D01*
X0173039Y0107132D01*
X0169836Y0111429D02*
X0170904Y0112497D01*
X0170904Y0114632D01*
X0169836Y0115700D01*
X0168768Y0115700D01*
X0168768Y0111429D01*
X0167701Y0111429D02*
X0169836Y0111429D01*
X0167701Y0111429D02*
X0166633Y0112497D01*
X0166633Y0114632D01*
X0167701Y0124320D02*
X0166633Y0125388D01*
X0166633Y0127523D01*
X0167701Y0128591D01*
X0167701Y0130766D02*
X0169836Y0130766D01*
X0170904Y0131833D01*
X0170904Y0133969D01*
X0169836Y0135036D01*
X0168768Y0135036D01*
X0168768Y0130766D01*
X0167701Y0130766D02*
X0166633Y0131833D01*
X0166633Y0133969D01*
X0166633Y0137211D02*
X0166633Y0139346D01*
X0166633Y0138279D02*
X0173039Y0138279D01*
X0173039Y0137211D01*
X0173039Y0141508D02*
X0173039Y0142576D01*
X0166633Y0142576D01*
X0166633Y0143643D02*
X0166633Y0141508D01*
X0166633Y0152251D02*
X0166633Y0156521D01*
X0166633Y0158696D02*
X0166633Y0160831D01*
X0166633Y0159764D02*
X0170904Y0159764D01*
X0170904Y0158696D01*
X0173039Y0159764D02*
X0174106Y0159764D01*
X0170904Y0162993D02*
X0170904Y0166196D01*
X0169836Y0167264D01*
X0167701Y0167264D01*
X0166633Y0166196D01*
X0166633Y0162993D01*
X0164498Y0162993D02*
X0170904Y0162993D01*
X0169836Y0169439D02*
X0167701Y0169439D01*
X0166633Y0170506D01*
X0166633Y0172641D01*
X0167701Y0173709D01*
X0169836Y0173709D01*
X0170904Y0172641D01*
X0170904Y0170506D01*
X0169836Y0169439D01*
X0167701Y0182330D02*
X0166633Y0183397D01*
X0166633Y0185532D01*
X0167701Y0186600D01*
X0166633Y0188775D02*
X0173039Y0188775D01*
X0170904Y0189843D02*
X0170904Y0191978D01*
X0169836Y0193046D01*
X0166633Y0193046D01*
X0167701Y0195221D02*
X0168768Y0196288D01*
X0168768Y0199491D01*
X0169836Y0199491D02*
X0166633Y0199491D01*
X0166633Y0196288D01*
X0167701Y0195221D01*
X0170904Y0196288D02*
X0170904Y0198423D01*
X0169836Y0199491D01*
X0168768Y0201666D02*
X0170904Y0203801D01*
X0170904Y0204869D01*
X0169836Y0207037D02*
X0167701Y0207037D01*
X0166633Y0208105D01*
X0166633Y0211308D01*
X0165566Y0211308D02*
X0164498Y0210240D01*
X0164498Y0209173D01*
X0165566Y0211308D02*
X0170904Y0211308D01*
X0170904Y0208105D01*
X0169836Y0207037D01*
X0169836Y0213483D02*
X0167701Y0213483D01*
X0166633Y0214551D01*
X0166633Y0216686D01*
X0168768Y0217753D02*
X0168768Y0213483D01*
X0169836Y0213483D02*
X0170904Y0214551D01*
X0170904Y0216686D01*
X0169836Y0217753D01*
X0168768Y0217753D01*
X0168768Y0219928D02*
X0170904Y0222064D01*
X0170904Y0223131D01*
X0170904Y0219928D02*
X0166633Y0219928D01*
X0166633Y0201666D02*
X0170904Y0201666D01*
X0170904Y0189843D02*
X0169836Y0188775D01*
X0171971Y0186600D02*
X0173039Y0185532D01*
X0173039Y0183397D01*
X0171971Y0182330D01*
X0167701Y0182330D01*
X0166633Y0152251D02*
X0173039Y0152251D01*
X0171971Y0128591D02*
X0173039Y0127523D01*
X0173039Y0125388D01*
X0171971Y0124320D01*
X0167701Y0124320D01*
X0166633Y0098512D02*
X0169836Y0098512D01*
X0170904Y0097444D01*
X0170904Y0094241D01*
X0166633Y0094241D01*
X0166633Y0092079D02*
X0166633Y0089944D01*
X0166633Y0091012D02*
X0170904Y0091012D01*
X0170904Y0089944D01*
X0173039Y0091012D02*
X0174106Y0091012D01*
X0171971Y0087769D02*
X0173039Y0086702D01*
X0173039Y0084566D01*
X0171971Y0083499D01*
X0170904Y0083499D01*
X0169836Y0084566D01*
X0169836Y0086702D01*
X0168768Y0087769D01*
X0167701Y0087769D01*
X0166633Y0086702D01*
X0166633Y0084566D01*
X0167701Y0083499D01*
X0122336Y0346355D02*
X0122336Y0350625D01*
X0120898Y0363868D02*
X0120898Y0368138D01*
X0123033Y0366003D02*
X0118763Y0366003D01*
X0158021Y0375300D02*
X0158021Y0378503D01*
X0159088Y0379570D01*
X0162291Y0379570D01*
X0162291Y0375300D01*
X0164453Y0375300D02*
X0166588Y0375300D01*
X0165520Y0375300D02*
X0165520Y0379570D01*
X0166588Y0379570D01*
X0165520Y0381705D02*
X0165520Y0382773D01*
X0168763Y0381705D02*
X0168763Y0377435D01*
X0170898Y0375300D01*
X0173033Y0377435D01*
X0173033Y0381705D01*
X0214836Y0363125D02*
X0214836Y0358855D01*
X0215898Y0350638D02*
X0215898Y0346368D01*
X0218033Y0348503D02*
X0213763Y0348503D01*
D11*
X0168337Y0246472D02*
X0168337Y0240600D01*
X0168337Y0108472D02*
X0168337Y0102600D01*
X0171273Y0105536D02*
X0165401Y0105536D01*
D12*
X0150833Y0053563D02*
X0146433Y0053563D01*
X0146433Y0091063D01*
X0190233Y0091063D01*
X0190233Y0053563D01*
X0185833Y0053563D01*
X0185833Y0039863D01*
X0150833Y0039863D01*
X0150833Y0053563D01*
X0146433Y0258937D02*
X0146433Y0296437D01*
X0150833Y0296437D01*
X0150833Y0310137D01*
X0185833Y0310137D01*
X0185833Y0296437D01*
X0190233Y0296437D01*
X0190233Y0258937D01*
X0146433Y0258937D01*
M02*
